<svg xmlns="http://www.w3.org/2000/svg" xmlns:xlink="http://www.w3.org/1999/xlink" width="800" zoomAndPan="magnify" viewBox="0 0 600 599.999999" height="800" preserveAspectRatio="xMidYMid meet" version="1.0"><defs><g/><clipPath id="ed122fe87e"><path d="M 22.894531 60 L 577.105469 60 L 577.105469 540 L 22.894531 540 Z M 22.894531 60 " clip-rule="nonzero"/></clipPath><clipPath id="b4a5dae94f"><path d="M 438.554688 60 L 161.445312 60 L 22.894531 300 L 161.445312 540 L 438.554688 540 L 577.105469 300 Z M 438.554688 60 " clip-rule="nonzero"/></clipPath></defs><rect x="-60" width="720" fill="#ffffff" y="-60" height="719.999999" fill-opacity="1"/><rect x="-60" width="720" fill="#00c4cc" y="-60" height="719.999999" fill-opacity="1"/><g clip-path="url(#ed122fe87e)"><g clip-path="url(#b4a5dae94f)"><path fill="#ff7948" d="M 22.894531 60 L 577.105469 60 L 577.105469 540.542969 L 22.894531 540.542969 Z M 22.894531 60 " fill-opacity="1" fill-rule="nonzero"/></g></g><g fill="#ffffff" fill-opacity="1"><g transform="translate(111.959535, 282.192477)"><g><path d="M 54.703125 -72.9375 C 55.109375 -71.3125 55.3125 -69.285156 55.3125 -66.859375 C 55.3125 -64.523438 55.109375 -62.5 54.703125 -60.78125 C 55.109375 -59.15625 55.3125 -57.128906 55.3125 -54.703125 C 55.3125 -52.367188 55.109375 -50.34375 54.703125 -48.625 C 55.109375 -47 55.3125 -44.972656 55.3125 -42.546875 C 55.3125 -40.210938 55.109375 -38.1875 54.703125 -36.46875 C 55.109375 -34.84375 55.3125 -32.816406 55.3125 -30.390625 C 55.3125 -28.054688 55.109375 -26.03125 54.703125 -24.3125 C 55.109375 -22.6875 55.3125 -20.660156 55.3125 -18.234375 C 55.3125 -15.898438 55.109375 -13.875 54.703125 -12.15625 C 55.109375 -10.53125 55.3125 -8.503906 55.3125 -6.078125 C 55.3125 -3.742188 55.109375 -1.71875 54.703125 0 L 42.546875 0 C 42.140625 -1.71875 41.9375 -3.742188 41.9375 -6.078125 C 41.9375 -8.503906 42.140625 -10.53125 42.546875 -12.15625 C 42.140625 -13.875 41.9375 -15.898438 41.9375 -18.234375 C 41.9375 -20.660156 42.140625 -22.6875 42.546875 -24.3125 C 42.140625 -26.03125 41.9375 -28.054688 41.9375 -30.390625 C 41.9375 -32.816406 42.140625 -34.84375 42.546875 -36.46875 C 42.140625 -38.1875 41.9375 -40.210938 41.9375 -42.546875 C 41.9375 -44.972656 42.140625 -47 42.546875 -48.625 C 42.140625 -50.34375 41.9375 -52.367188 41.9375 -54.703125 C 41.9375 -57.128906 42.140625 -59.15625 42.546875 -60.78125 L 37.984375 -60.78125 C 38.390625 -59.15625 38.59375 -57.128906 38.59375 -54.703125 C 38.59375 -52.367188 38.390625 -50.34375 37.984375 -48.625 C 38.390625 -47 38.59375 -44.972656 38.59375 -42.546875 C 38.59375 -40.210938 38.390625 -38.1875 37.984375 -36.46875 L 34.953125 -36.46875 C 35.359375 -34.84375 35.5625 -32.816406 35.5625 -30.390625 C 35.5625 -28.054688 35.359375 -26.03125 34.953125 -24.3125 C 35.359375 -22.6875 35.5625 -20.660156 35.5625 -18.234375 C 35.5625 -15.898438 35.359375 -13.875 34.953125 -12.15625 L 25.828125 -12.15625 C 25.421875 -13.875 25.21875 -15.898438 25.21875 -18.234375 C 25.21875 -20.660156 25.421875 -22.6875 25.828125 -24.3125 C 25.421875 -26.03125 25.21875 -28.054688 25.21875 -30.390625 C 25.21875 -32.816406 25.421875 -34.84375 25.828125 -36.46875 L 22.796875 -36.46875 C 22.390625 -38.1875 22.1875 -40.210938 22.1875 -42.546875 C 22.1875 -44.972656 22.390625 -47 22.796875 -48.625 C 22.390625 -50.34375 22.1875 -52.367188 22.1875 -54.703125 C 22.1875 -57.128906 22.390625 -59.15625 22.796875 -60.78125 L 18.234375 -60.78125 C 18.640625 -59.15625 18.84375 -57.128906 18.84375 -54.703125 C 18.84375 -52.367188 18.640625 -50.34375 18.234375 -48.625 C 18.640625 -47 18.84375 -44.972656 18.84375 -42.546875 C 18.84375 -40.210938 18.640625 -38.1875 18.234375 -36.46875 C 18.640625 -34.84375 18.84375 -32.816406 18.84375 -30.390625 C 18.84375 -28.054688 18.640625 -26.03125 18.234375 -24.3125 C 18.640625 -22.6875 18.84375 -20.660156 18.84375 -18.234375 C 18.84375 -15.898438 18.640625 -13.875 18.234375 -12.15625 C 18.640625 -10.53125 18.84375 -8.503906 18.84375 -6.078125 C 18.84375 -3.742188 18.640625 -1.71875 18.234375 0 L 6.078125 0 C 5.671875 -1.71875 5.46875 -3.742188 5.46875 -6.078125 C 5.46875 -8.503906 5.671875 -10.53125 6.078125 -12.15625 C 5.671875 -13.875 5.46875 -15.898438 5.46875 -18.234375 C 5.46875 -20.660156 5.671875 -22.6875 6.078125 -24.3125 C 5.671875 -26.03125 5.46875 -28.054688 5.46875 -30.390625 C 5.46875 -32.816406 5.671875 -34.84375 6.078125 -36.46875 C 5.671875 -38.1875 5.46875 -40.210938 5.46875 -42.546875 C 5.46875 -44.972656 5.671875 -47 6.078125 -48.625 C 5.671875 -50.34375 5.46875 -52.367188 5.46875 -54.703125 C 5.46875 -57.128906 5.671875 -59.15625 6.078125 -60.78125 C 5.671875 -62.5 5.46875 -64.523438 5.46875 -66.859375 C 5.46875 -69.285156 5.671875 -71.3125 6.078125 -72.9375 C 5.671875 -74.65625 5.46875 -76.679688 5.46875 -79.015625 C 5.46875 -81.441406 5.671875 -83.46875 6.078125 -85.09375 L 21.28125 -85.09375 C 21.675781 -83.46875 21.875 -81.441406 21.875 -79.015625 C 21.875 -76.679688 21.675781 -74.65625 21.28125 -72.9375 L 25.828125 -72.9375 C 26.234375 -71.3125 26.4375 -69.285156 26.4375 -66.859375 C 26.4375 -64.523438 26.234375 -62.5 25.828125 -60.78125 L 28.109375 -60.78125 C 28.515625 -59.15625 28.71875 -57.128906 28.71875 -54.703125 C 28.71875 -52.367188 28.515625 -50.34375 28.109375 -48.625 L 32.671875 -48.625 C 32.265625 -50.34375 32.0625 -52.367188 32.0625 -54.703125 C 32.0625 -57.128906 32.265625 -59.15625 32.671875 -60.78125 L 34.953125 -60.78125 C 34.546875 -62.5 34.34375 -64.523438 34.34375 -66.859375 C 34.34375 -69.285156 34.546875 -71.3125 34.953125 -72.9375 L 39.515625 -72.9375 C 39.109375 -74.65625 38.90625 -76.679688 38.90625 -79.015625 C 38.90625 -81.441406 39.109375 -83.46875 39.515625 -85.09375 L 54.703125 -85.09375 C 55.109375 -83.46875 55.3125 -81.441406 55.3125 -79.015625 C 55.3125 -76.679688 55.109375 -74.65625 54.703125 -72.9375 Z M 54.703125 -72.9375 "/></g></g></g><g fill="#ffffff" fill-opacity="1"><g transform="translate(175.01821, 282.192477)"><g><path d="M 45.59375 -12.15625 C 45.988281 -10.53125 46.1875 -8.503906 46.1875 -6.078125 C 46.1875 -3.742188 45.988281 -1.71875 45.59375 0 L 15.203125 0 C 14.796875 -1.71875 14.59375 -3.742188 14.59375 -6.078125 C 14.59375 -8.503906 14.796875 -10.53125 15.203125 -12.15625 L 24.3125 -12.15625 C 23.90625 -13.875 23.703125 -15.898438 23.703125 -18.234375 C 23.703125 -20.660156 23.90625 -22.6875 24.3125 -24.3125 C 23.90625 -26.03125 23.703125 -28.054688 23.703125 -30.390625 C 23.703125 -32.816406 23.90625 -34.84375 24.3125 -36.46875 C 23.90625 -38.1875 23.703125 -40.210938 23.703125 -42.546875 C 23.703125 -44.972656 23.90625 -47 24.3125 -48.625 C 23.90625 -50.34375 23.703125 -52.367188 23.703125 -54.703125 C 23.703125 -57.128906 23.90625 -59.15625 24.3125 -60.78125 C 23.90625 -62.5 23.703125 -64.523438 23.703125 -66.859375 C 23.703125 -69.285156 23.90625 -71.3125 24.3125 -72.9375 L 15.203125 -72.9375 C 14.796875 -74.65625 14.59375 -76.679688 14.59375 -79.015625 C 14.59375 -81.441406 14.796875 -83.46875 15.203125 -85.09375 L 45.59375 -85.09375 C 45.988281 -83.46875 46.1875 -81.441406 46.1875 -79.015625 C 46.1875 -76.679688 45.988281 -74.65625 45.59375 -72.9375 L 36.46875 -72.9375 C 36.875 -71.3125 37.078125 -69.285156 37.078125 -66.859375 C 37.078125 -64.523438 36.875 -62.5 36.46875 -60.78125 C 36.875 -59.15625 37.078125 -57.128906 37.078125 -54.703125 C 37.078125 -52.367188 36.875 -50.34375 36.46875 -48.625 C 36.875 -47 37.078125 -44.972656 37.078125 -42.546875 C 37.078125 -40.210938 36.875 -38.1875 36.46875 -36.46875 C 36.875 -34.84375 37.078125 -32.816406 37.078125 -30.390625 C 37.078125 -28.054688 36.875 -26.03125 36.46875 -24.3125 C 36.875 -22.6875 37.078125 -20.660156 37.078125 -18.234375 C 37.078125 -15.898438 36.875 -13.875 36.46875 -12.15625 Z M 45.59375 -12.15625 "/></g></g></g><g fill="#ffffff" fill-opacity="1"><g transform="translate(238.076886, 282.192477)"><g><path d="M 54.703125 -12.15625 C 55.109375 -10.53125 55.3125 -8.503906 55.3125 -6.078125 C 55.3125 -3.742188 55.109375 -1.71875 54.703125 0 L 42.546875 0 C 42.140625 -1.71875 41.9375 -3.742188 41.9375 -6.078125 C 41.9375 -8.503906 42.140625 -10.53125 42.546875 -12.15625 L 37.984375 -12.15625 C 37.578125 -13.875 37.375 -15.898438 37.375 -18.234375 C 37.375 -20.660156 37.578125 -22.6875 37.984375 -24.3125 L 28.875 -24.3125 C 28.46875 -26.03125 28.265625 -28.054688 28.265625 -30.390625 C 28.265625 -32.816406 28.46875 -34.84375 28.875 -36.46875 L 18.234375 -36.46875 C 18.640625 -34.84375 18.84375 -32.816406 18.84375 -30.390625 C 18.84375 -28.054688 18.640625 -26.03125 18.234375 -24.3125 C 18.640625 -22.6875 18.84375 -20.660156 18.84375 -18.234375 C 18.84375 -15.898438 18.640625 -13.875 18.234375 -12.15625 C 18.640625 -10.53125 18.84375 -8.503906 18.84375 -6.078125 C 18.84375 -3.742188 18.640625 -1.71875 18.234375 0 L 6.078125 0 C 5.671875 -1.71875 5.46875 -3.742188 5.46875 -6.078125 C 5.46875 -8.503906 5.671875 -10.53125 6.078125 -12.15625 C 5.671875 -13.875 5.46875 -15.898438 5.46875 -18.234375 C 5.46875 -20.660156 5.671875 -22.6875 6.078125 -24.3125 C 5.671875 -26.03125 5.46875 -28.054688 5.46875 -30.390625 C 5.46875 -32.816406 5.671875 -34.84375 6.078125 -36.46875 C 5.671875 -38.1875 5.46875 -40.210938 5.46875 -42.546875 C 5.46875 -44.972656 5.671875 -47 6.078125 -48.625 C 5.671875 -50.34375 5.46875 -52.367188 5.46875 -54.703125 C 5.46875 -57.128906 5.671875 -59.15625 6.078125 -60.78125 C 5.671875 -62.5 5.46875 -64.523438 5.46875 -66.859375 C 5.46875 -69.285156 5.671875 -71.3125 6.078125 -72.9375 C 5.671875 -74.65625 5.46875 -76.679688 5.46875 -79.015625 C 5.46875 -81.441406 5.671875 -83.46875 6.078125 -85.09375 L 18.234375 -85.09375 C 18.640625 -83.46875 18.84375 -81.441406 18.84375 -79.015625 C 18.84375 -76.679688 18.640625 -74.65625 18.234375 -72.9375 C 18.640625 -71.3125 18.84375 -69.285156 18.84375 -66.859375 C 18.84375 -64.523438 18.640625 -62.5 18.234375 -60.78125 C 18.640625 -59.15625 18.84375 -57.128906 18.84375 -54.703125 C 18.84375 -52.367188 18.640625 -50.34375 18.234375 -48.625 L 28.875 -48.625 C 28.46875 -50.34375 28.265625 -52.367188 28.265625 -54.703125 C 28.265625 -57.128906 28.46875 -59.15625 28.875 -60.78125 L 37.984375 -60.78125 C 37.578125 -62.5 37.375 -64.523438 37.375 -66.859375 C 37.375 -69.285156 37.578125 -71.3125 37.984375 -72.9375 L 42.546875 -72.9375 C 42.140625 -74.65625 41.9375 -76.679688 41.9375 -79.015625 C 41.9375 -81.441406 42.140625 -83.46875 42.546875 -85.09375 L 54.703125 -85.09375 C 55.109375 -83.46875 55.3125 -81.441406 55.3125 -79.015625 C 55.3125 -76.679688 55.109375 -74.65625 54.703125 -72.9375 L 50.140625 -72.9375 C 50.546875 -71.3125 50.75 -69.285156 50.75 -66.859375 C 50.75 -64.523438 50.546875 -62.5 50.140625 -60.78125 L 41.03125 -60.78125 C 41.4375 -59.15625 41.640625 -57.128906 41.640625 -54.703125 C 41.640625 -52.367188 41.4375 -50.34375 41.03125 -48.625 L 33.4375 -48.625 C 33.832031 -47 34.03125 -44.972656 34.03125 -42.546875 C 34.03125 -40.210938 33.832031 -38.1875 33.4375 -36.46875 L 41.03125 -36.46875 C 41.4375 -34.84375 41.640625 -32.816406 41.640625 -30.390625 C 41.640625 -28.054688 41.4375 -26.03125 41.03125 -24.3125 L 50.140625 -24.3125 C 50.546875 -22.6875 50.75 -20.660156 50.75 -18.234375 C 50.75 -15.898438 50.546875 -13.875 50.140625 -12.15625 Z M 54.703125 -12.15625 "/></g></g></g><g fill="#ffffff" fill-opacity="1"><g transform="translate(301.135561, 282.192477)"><g><path d="M 54.703125 -72.9375 C 55.109375 -71.3125 55.3125 -69.285156 55.3125 -66.859375 C 55.3125 -64.523438 55.109375 -62.5 54.703125 -60.78125 C 55.109375 -59.15625 55.3125 -57.128906 55.3125 -54.703125 C 55.3125 -52.367188 55.109375 -50.34375 54.703125 -48.625 C 55.109375 -47 55.3125 -44.972656 55.3125 -42.546875 C 55.3125 -40.210938 55.109375 -38.1875 54.703125 -36.46875 C 55.109375 -34.84375 55.3125 -32.816406 55.3125 -30.390625 C 55.3125 -28.054688 55.109375 -26.03125 54.703125 -24.3125 C 55.109375 -22.6875 55.3125 -20.660156 55.3125 -18.234375 C 55.3125 -15.898438 55.109375 -13.875 54.703125 -12.15625 C 55.109375 -10.53125 55.3125 -8.503906 55.3125 -6.078125 C 55.3125 -3.742188 55.109375 -1.71875 54.703125 0 L 42.546875 0 C 42.140625 -1.71875 41.9375 -3.742188 41.9375 -6.078125 C 41.9375 -8.503906 42.140625 -10.53125 42.546875 -12.15625 C 42.140625 -13.875 41.9375 -15.898438 41.9375 -18.234375 C 41.9375 -20.660156 42.140625 -22.6875 42.546875 -24.3125 C 42.140625 -26.03125 41.9375 -28.054688 41.9375 -30.390625 C 41.9375 -32.816406 42.140625 -34.84375 42.546875 -36.46875 C 42.140625 -38.1875 41.9375 -40.210938 41.9375 -42.546875 C 41.9375 -44.972656 42.140625 -47 42.546875 -48.625 C 42.140625 -50.34375 41.9375 -52.367188 41.9375 -54.703125 C 41.9375 -57.128906 42.140625 -59.15625 42.546875 -60.78125 L 37.984375 -60.78125 C 38.390625 -59.15625 38.59375 -57.128906 38.59375 -54.703125 C 38.59375 -52.367188 38.390625 -50.34375 37.984375 -48.625 C 38.390625 -47 38.59375 -44.972656 38.59375 -42.546875 C 38.59375 -40.210938 38.390625 -38.1875 37.984375 -36.46875 L 34.953125 -36.46875 C 35.359375 -34.84375 35.5625 -32.816406 35.5625 -30.390625 C 35.5625 -28.054688 35.359375 -26.03125 34.953125 -24.3125 C 35.359375 -22.6875 35.5625 -20.660156 35.5625 -18.234375 C 35.5625 -15.898438 35.359375 -13.875 34.953125 -12.15625 L 25.828125 -12.15625 C 25.421875 -13.875 25.21875 -15.898438 25.21875 -18.234375 C 25.21875 -20.660156 25.421875 -22.6875 25.828125 -24.3125 C 25.421875 -26.03125 25.21875 -28.054688 25.21875 -30.390625 C 25.21875 -32.816406 25.421875 -34.84375 25.828125 -36.46875 L 22.796875 -36.46875 C 22.390625 -38.1875 22.1875 -40.210938 22.1875 -42.546875 C 22.1875 -44.972656 22.390625 -47 22.796875 -48.625 C 22.390625 -50.34375 22.1875 -52.367188 22.1875 -54.703125 C 22.1875 -57.128906 22.390625 -59.15625 22.796875 -60.78125 L 18.234375 -60.78125 C 18.640625 -59.15625 18.84375 -57.128906 18.84375 -54.703125 C 18.84375 -52.367188 18.640625 -50.34375 18.234375 -48.625 C 18.640625 -47 18.84375 -44.972656 18.84375 -42.546875 C 18.84375 -40.210938 18.640625 -38.1875 18.234375 -36.46875 C 18.640625 -34.84375 18.84375 -32.816406 18.84375 -30.390625 C 18.84375 -28.054688 18.640625 -26.03125 18.234375 -24.3125 C 18.640625 -22.6875 18.84375 -20.660156 18.84375 -18.234375 C 18.84375 -15.898438 18.640625 -13.875 18.234375 -12.15625 C 18.640625 -10.53125 18.84375 -8.503906 18.84375 -6.078125 C 18.84375 -3.742188 18.640625 -1.71875 18.234375 0 L 6.078125 0 C 5.671875 -1.71875 5.46875 -3.742188 5.46875 -6.078125 C 5.46875 -8.503906 5.671875 -10.53125 6.078125 -12.15625 C 5.671875 -13.875 5.46875 -15.898438 5.46875 -18.234375 C 5.46875 -20.660156 5.671875 -22.6875 6.078125 -24.3125 C 5.671875 -26.03125 5.46875 -28.054688 5.46875 -30.390625 C 5.46875 -32.816406 5.671875 -34.84375 6.078125 -36.46875 C 5.671875 -38.1875 5.46875 -40.210938 5.46875 -42.546875 C 5.46875 -44.972656 5.671875 -47 6.078125 -48.625 C 5.671875 -50.34375 5.46875 -52.367188 5.46875 -54.703125 C 5.46875 -57.128906 5.671875 -59.15625 6.078125 -60.78125 C 5.671875 -62.5 5.46875 -64.523438 5.46875 -66.859375 C 5.46875 -69.285156 5.671875 -71.3125 6.078125 -72.9375 C 5.671875 -74.65625 5.46875 -76.679688 5.46875 -79.015625 C 5.46875 -81.441406 5.671875 -83.46875 6.078125 -85.09375 L 21.28125 -85.09375 C 21.675781 -83.46875 21.875 -81.441406 21.875 -79.015625 C 21.875 -76.679688 21.675781 -74.65625 21.28125 -72.9375 L 25.828125 -72.9375 C 26.234375 -71.3125 26.4375 -69.285156 26.4375 -66.859375 C 26.4375 -64.523438 26.234375 -62.5 25.828125 -60.78125 L 28.109375 -60.78125 C 28.515625 -59.15625 28.71875 -57.128906 28.71875 -54.703125 C 28.71875 -52.367188 28.515625 -50.34375 28.109375 -48.625 L 32.671875 -48.625 C 32.265625 -50.34375 32.0625 -52.367188 32.0625 -54.703125 C 32.0625 -57.128906 32.265625 -59.15625 32.671875 -60.78125 L 34.953125 -60.78125 C 34.546875 -62.5 34.34375 -64.523438 34.34375 -66.859375 C 34.34375 -69.285156 34.546875 -71.3125 34.953125 -72.9375 L 39.515625 -72.9375 C 39.109375 -74.65625 38.90625 -76.679688 38.90625 -79.015625 C 38.90625 -81.441406 39.109375 -83.46875 39.515625 -85.09375 L 54.703125 -85.09375 C 55.109375 -83.46875 55.3125 -81.441406 55.3125 -79.015625 C 55.3125 -76.679688 55.109375 -74.65625 54.703125 -72.9375 Z M 54.703125 -72.9375 "/></g></g></g><g fill="#ffffff" fill-opacity="1"><g transform="translate(364.194236, 282.192477)"><g><path d="M 45.59375 -12.15625 C 45.988281 -10.53125 46.1875 -8.503906 46.1875 -6.078125 C 46.1875 -3.742188 45.988281 -1.71875 45.59375 0 L 15.203125 0 C 14.796875 -1.71875 14.59375 -3.742188 14.59375 -6.078125 C 14.59375 -8.503906 14.796875 -10.53125 15.203125 -12.15625 L 24.3125 -12.15625 C 23.90625 -13.875 23.703125 -15.898438 23.703125 -18.234375 C 23.703125 -20.660156 23.90625 -22.6875 24.3125 -24.3125 C 23.90625 -26.03125 23.703125 -28.054688 23.703125 -30.390625 C 23.703125 -32.816406 23.90625 -34.84375 24.3125 -36.46875 C 23.90625 -38.1875 23.703125 -40.210938 23.703125 -42.546875 C 23.703125 -44.972656 23.90625 -47 24.3125 -48.625 C 23.90625 -50.34375 23.703125 -52.367188 23.703125 -54.703125 C 23.703125 -57.128906 23.90625 -59.15625 24.3125 -60.78125 C 23.90625 -62.5 23.703125 -64.523438 23.703125 -66.859375 C 23.703125 -69.285156 23.90625 -71.3125 24.3125 -72.9375 L 15.203125 -72.9375 C 14.796875 -74.65625 14.59375 -76.679688 14.59375 -79.015625 C 14.59375 -81.441406 14.796875 -83.46875 15.203125 -85.09375 L 45.59375 -85.09375 C 45.988281 -83.46875 46.1875 -81.441406 46.1875 -79.015625 C 46.1875 -76.679688 45.988281 -74.65625 45.59375 -72.9375 L 36.46875 -72.9375 C 36.875 -71.3125 37.078125 -69.285156 37.078125 -66.859375 C 37.078125 -64.523438 36.875 -62.5 36.46875 -60.78125 C 36.875 -59.15625 37.078125 -57.128906 37.078125 -54.703125 C 37.078125 -52.367188 36.875 -50.34375 36.46875 -48.625 C 36.875 -47 37.078125 -44.972656 37.078125 -42.546875 C 37.078125 -40.210938 36.875 -38.1875 36.46875 -36.46875 C 36.875 -34.84375 37.078125 -32.816406 37.078125 -30.390625 C 37.078125 -28.054688 36.875 -26.03125 36.46875 -24.3125 C 36.875 -22.6875 37.078125 -20.660156 37.078125 -18.234375 C 37.078125 -15.898438 36.875 -13.875 36.46875 -12.15625 Z M 45.59375 -12.15625 "/></g></g></g><g fill="#ffffff" fill-opacity="1"><g transform="translate(427.252912, 282.192477)"><g><path d="M 54.703125 -12.15625 C 55.109375 -10.53125 55.3125 -8.503906 55.3125 -6.078125 C 55.3125 -3.742188 55.109375 -1.71875 54.703125 0 L 42.546875 0 C 42.140625 -1.71875 41.9375 -3.742188 41.9375 -6.078125 C 41.9375 -8.503906 42.140625 -10.53125 42.546875 -12.15625 L 37.984375 -12.15625 C 37.578125 -13.875 37.375 -15.898438 37.375 -18.234375 C 37.375 -20.660156 37.578125 -22.6875 37.984375 -24.3125 L 28.875 -24.3125 C 28.46875 -26.03125 28.265625 -28.054688 28.265625 -30.390625 C 28.265625 -32.816406 28.46875 -34.84375 28.875 -36.46875 L 18.234375 -36.46875 C 18.640625 -34.84375 18.84375 -32.816406 18.84375 -30.390625 C 18.84375 -28.054688 18.640625 -26.03125 18.234375 -24.3125 C 18.640625 -22.6875 18.84375 -20.660156 18.84375 -18.234375 C 18.84375 -15.898438 18.640625 -13.875 18.234375 -12.15625 C 18.640625 -10.53125 18.84375 -8.503906 18.84375 -6.078125 C 18.84375 -3.742188 18.640625 -1.71875 18.234375 0 L 6.078125 0 C 5.671875 -1.71875 5.46875 -3.742188 5.46875 -6.078125 C 5.46875 -8.503906 5.671875 -10.53125 6.078125 -12.15625 C 5.671875 -13.875 5.46875 -15.898438 5.46875 -18.234375 C 5.46875 -20.660156 5.671875 -22.6875 6.078125 -24.3125 C 5.671875 -26.03125 5.46875 -28.054688 5.46875 -30.390625 C 5.46875 -32.816406 5.671875 -34.84375 6.078125 -36.46875 C 5.671875 -38.1875 5.46875 -40.210938 5.46875 -42.546875 C 5.46875 -44.972656 5.671875 -47 6.078125 -48.625 C 5.671875 -50.34375 5.46875 -52.367188 5.46875 -54.703125 C 5.46875 -57.128906 5.671875 -59.15625 6.078125 -60.78125 C 5.671875 -62.5 5.46875 -64.523438 5.46875 -66.859375 C 5.46875 -69.285156 5.671875 -71.3125 6.078125 -72.9375 C 5.671875 -74.65625 5.46875 -76.679688 5.46875 -79.015625 C 5.46875 -81.441406 5.671875 -83.46875 6.078125 -85.09375 L 18.234375 -85.09375 C 18.640625 -83.46875 18.84375 -81.441406 18.84375 -79.015625 C 18.84375 -76.679688 18.640625 -74.65625 18.234375 -72.9375 C 18.640625 -71.3125 18.84375 -69.285156 18.84375 -66.859375 C 18.84375 -64.523438 18.640625 -62.5 18.234375 -60.78125 C 18.640625 -59.15625 18.84375 -57.128906 18.84375 -54.703125 C 18.84375 -52.367188 18.640625 -50.34375 18.234375 -48.625 L 28.875 -48.625 C 28.46875 -50.34375 28.265625 -52.367188 28.265625 -54.703125 C 28.265625 -57.128906 28.46875 -59.15625 28.875 -60.78125 L 37.984375 -60.78125 C 37.578125 -62.5 37.375 -64.523438 37.375 -66.859375 C 37.375 -69.285156 37.578125 -71.3125 37.984375 -72.9375 L 42.546875 -72.9375 C 42.140625 -74.65625 41.9375 -76.679688 41.9375 -79.015625 C 41.9375 -81.441406 42.140625 -83.46875 42.546875 -85.09375 L 54.703125 -85.09375 C 55.109375 -83.46875 55.3125 -81.441406 55.3125 -79.015625 C 55.3125 -76.679688 55.109375 -74.65625 54.703125 -72.9375 L 50.140625 -72.9375 C 50.546875 -71.3125 50.75 -69.285156 50.75 -66.859375 C 50.75 -64.523438 50.546875 -62.5 50.140625 -60.78125 L 41.03125 -60.78125 C 41.4375 -59.15625 41.640625 -57.128906 41.640625 -54.703125 C 41.640625 -52.367188 41.4375 -50.34375 41.03125 -48.625 L 33.4375 -48.625 C 33.832031 -47 34.03125 -44.972656 34.03125 -42.546875 C 34.03125 -40.210938 33.832031 -38.1875 33.4375 -36.46875 L 41.03125 -36.46875 C 41.4375 -34.84375 41.640625 -32.816406 41.640625 -30.390625 C 41.640625 -28.054688 41.4375 -26.03125 41.03125 -24.3125 L 50.140625 -24.3125 C 50.546875 -22.6875 50.75 -20.660156 50.75 -18.234375 C 50.75 -15.898438 50.546875 -13.875 50.140625 -12.15625 Z M 54.703125 -12.15625 "/></g></g></g><g fill="#ffffff" fill-opacity="1"><g transform="translate(238.073028, 407.735572)"><g><path d="M 38.59375 -79.015625 C 38.59375 -76.679688 38.390625 -74.65625 37.984375 -72.9375 L 22.796875 -72.9375 C 22.390625 -74.65625 22.1875 -76.679688 22.1875 -79.015625 C 22.1875 -81.441406 22.390625 -83.46875 22.796875 -85.09375 L 37.984375 -85.09375 C 38.390625 -83.46875 38.59375 -81.441406 38.59375 -79.015625 Z M 22.796875 -24.3125 C 23.203125 -22.6875 23.40625 -20.660156 23.40625 -18.234375 C 23.40625 -15.898438 23.203125 -13.875 22.796875 -12.15625 L 15.203125 -12.15625 C 14.796875 -13.875 14.59375 -15.898438 14.59375 -18.234375 C 14.59375 -20.660156 14.796875 -22.6875 15.203125 -24.3125 L 10.640625 -24.3125 C 10.234375 -26.03125 10.03125 -28.054688 10.03125 -30.390625 C 10.03125 -32.816406 10.234375 -34.84375 10.640625 -36.46875 C 10.234375 -38.1875 10.03125 -40.210938 10.03125 -42.546875 C 10.03125 -44.972656 10.234375 -47 10.640625 -48.625 C 10.234375 -50.34375 10.03125 -52.367188 10.03125 -54.703125 C 10.03125 -57.128906 10.234375 -59.15625 10.640625 -60.78125 L 15.203125 -60.78125 C 14.796875 -62.5 14.59375 -64.523438 14.59375 -66.859375 C 14.59375 -69.285156 14.796875 -71.3125 15.203125 -72.9375 L 22.796875 -72.9375 C 23.203125 -71.3125 23.40625 -69.285156 23.40625 -66.859375 C 23.40625 -64.523438 23.203125 -62.5 22.796875 -60.78125 C 23.203125 -59.15625 23.40625 -57.128906 23.40625 -54.703125 C 23.40625 -52.367188 23.203125 -50.34375 22.796875 -48.625 C 23.203125 -47 23.40625 -44.972656 23.40625 -42.546875 C 23.40625 -40.210938 23.203125 -38.1875 22.796875 -36.46875 C 23.203125 -34.84375 23.40625 -32.816406 23.40625 -30.390625 C 23.40625 -28.054688 23.203125 -26.03125 22.796875 -24.3125 Z M 50.140625 -48.625 C 50.546875 -47 50.75 -44.972656 50.75 -42.546875 C 50.75 -40.210938 50.546875 -38.1875 50.140625 -36.46875 C 50.546875 -34.84375 50.75 -32.816406 50.75 -30.390625 C 50.75 -28.054688 50.546875 -26.03125 50.140625 -24.3125 L 45.59375 -24.3125 C 45.988281 -22.6875 46.1875 -20.660156 46.1875 -18.234375 C 46.1875 -15.898438 45.988281 -13.875 45.59375 -12.15625 L 37.984375 -12.15625 C 37.578125 -13.875 37.375 -15.898438 37.375 -18.234375 C 37.375 -20.660156 37.578125 -22.6875 37.984375 -24.3125 C 37.578125 -26.03125 37.375 -28.054688 37.375 -30.390625 C 37.375 -32.816406 37.578125 -34.84375 37.984375 -36.46875 C 37.578125 -38.1875 37.375 -40.210938 37.375 -42.546875 C 37.375 -44.972656 37.578125 -47 37.984375 -48.625 C 37.578125 -50.34375 37.375 -52.367188 37.375 -54.703125 C 37.375 -57.128906 37.578125 -59.15625 37.984375 -60.78125 C 37.578125 -62.5 37.375 -64.523438 37.375 -66.859375 C 37.375 -69.285156 37.578125 -71.3125 37.984375 -72.9375 L 45.59375 -72.9375 C 45.988281 -71.3125 46.1875 -69.285156 46.1875 -66.859375 C 46.1875 -64.523438 45.988281 -62.5 45.59375 -60.78125 L 50.140625 -60.78125 C 50.546875 -59.15625 50.75 -57.128906 50.75 -54.703125 C 50.75 -52.367188 50.546875 -50.34375 50.140625 -48.625 Z M 22.1875 -6.078125 C 22.1875 -8.503906 22.390625 -10.53125 22.796875 -12.15625 L 37.984375 -12.15625 C 38.390625 -10.53125 38.59375 -8.503906 38.59375 -6.078125 C 38.59375 -3.742188 38.390625 -1.71875 37.984375 0 L 22.796875 0 C 22.390625 -1.71875 22.1875 -3.742188 22.1875 -6.078125 Z M 22.1875 -6.078125 "/></g></g></g><g fill="#ffffff" fill-opacity="1"><g transform="translate(301.131703, 407.735572)"><g><path d="M 52.265625 -54.703125 C 52.265625 -52.367188 52.066406 -50.34375 51.671875 -48.625 L 45.59375 -48.625 C 45.988281 -47 46.1875 -44.972656 46.1875 -42.546875 C 46.1875 -40.210938 45.988281 -38.1875 45.59375 -36.46875 L 51.671875 -36.46875 C 52.066406 -34.84375 52.265625 -32.816406 52.265625 -30.390625 C 52.265625 -28.054688 52.066406 -26.03125 51.671875 -24.3125 C 52.066406 -22.6875 52.265625 -20.660156 52.265625 -18.234375 C 52.265625 -15.898438 52.066406 -13.875 51.671875 -12.15625 L 45.59375 -12.15625 C 45.988281 -10.53125 46.1875 -8.503906 46.1875 -6.078125 C 46.1875 -3.742188 45.988281 -1.71875 45.59375 0 L 15.203125 0 C 14.796875 -1.71875 14.59375 -3.742188 14.59375 -6.078125 C 14.59375 -8.503906 14.796875 -10.53125 15.203125 -12.15625 L 9.125 -12.15625 C 8.71875 -13.875 8.515625 -15.898438 8.515625 -18.234375 C 8.515625 -20.660156 8.71875 -22.6875 9.125 -24.3125 L 21.28125 -24.3125 C 21.675781 -22.6875 21.875 -20.660156 21.875 -18.234375 C 21.875 -15.898438 21.675781 -13.875 21.28125 -12.15625 L 39.515625 -12.15625 C 39.109375 -13.875 38.90625 -15.898438 38.90625 -18.234375 C 38.90625 -20.660156 39.109375 -22.6875 39.515625 -24.3125 C 39.109375 -26.03125 38.90625 -28.054688 38.90625 -30.390625 C 38.90625 -32.816406 39.109375 -34.84375 39.515625 -36.46875 L 24.3125 -36.46875 C 23.90625 -38.1875 23.703125 -40.210938 23.703125 -42.546875 C 23.703125 -44.972656 23.90625 -47 24.3125 -48.625 L 39.515625 -48.625 C 39.109375 -50.34375 38.90625 -52.367188 38.90625 -54.703125 C 38.90625 -57.128906 39.109375 -59.15625 39.515625 -60.78125 C 39.109375 -62.5 38.90625 -64.523438 38.90625 -66.859375 C 38.90625 -69.285156 39.109375 -71.3125 39.515625 -72.9375 L 21.28125 -72.9375 C 21.675781 -71.3125 21.875 -69.285156 21.875 -66.859375 C 21.875 -64.523438 21.675781 -62.5 21.28125 -60.78125 L 9.125 -60.78125 C 8.71875 -62.5 8.515625 -64.523438 8.515625 -66.859375 C 8.515625 -69.285156 8.71875 -71.3125 9.125 -72.9375 L 15.203125 -72.9375 C 14.796875 -74.65625 14.59375 -76.679688 14.59375 -79.015625 C 14.59375 -81.441406 14.796875 -83.46875 15.203125 -85.09375 L 45.59375 -85.09375 C 45.988281 -83.46875 46.1875 -81.441406 46.1875 -79.015625 C 46.1875 -76.679688 45.988281 -74.65625 45.59375 -72.9375 L 51.671875 -72.9375 C 52.066406 -71.3125 52.265625 -69.285156 52.265625 -66.859375 C 52.265625 -64.523438 52.066406 -62.5 51.671875 -60.78125 C 52.066406 -59.15625 52.265625 -57.128906 52.265625 -54.703125 Z M 52.265625 -54.703125 "/></g></g></g></svg>